<svg viewBox="0 0 1203 1291" xmlns="http://www.w3.org/2000/svg" fill-rule="evenodd" clip-rule="evenodd" stroke-linejoin="round" stroke-miterlimit="1.414"><path d="M404.467 839.776c83.042 0 137.4-64.509 137.4-144.188 0-79.675-55.625-143.738-137.4-143.738-80.942 0-137.433 61.971-137.433 143.738 0 82.213 56.491 144.188 137.433 144.188z" fill="#58595b" fill-rule="nonzero"/><path d="M729.063 101.092V664.45h54.775l148.838-160.208h86.841l-178.75 188.85 181.25 211.634h-87.245L783.455 726.834h-54.392v177.892h-68.717V2.95C640.934 1.062 621.288 0 601.38 0 269.23 0 0 269.23 0 601.375c0 179.03 78.375 339.642 202.533 449.813V495.363h68.717v53.542c31.171-37.513 78-61.971 141.204-61.971 112.15 0 200.226 87.696 200.226 208.654 0 120.992-88.075 208.688-200.226 208.688-63.204 0-110.033-24.492-141.204-61.967v349.121c94.771 62.375 208.188 98.742 330.13 98.742 332.15 0 601.38-269.275 601.38-601.38 0-288.32-202.905-529.146-473.697-587.7z" fill="#58595b" fill-rule="nonzero"/></svg>